<?xml version="1.0" standalone="no"?>
<!DOCTYPE svg PUBLIC "-//W3C//DTD SVG 20010904//EN"
 "http://www.w3.org/TR/2001/REC-SVG-20010904/DTD/svg10.dtd">
<svg version="1.0" xmlns="http://www.w3.org/2000/svg"
 width="480.000000pt" height="480.000000pt" viewBox="0 0 480.000000 480.000000"
 preserveAspectRatio="xMidYMid meet">
<metadata>
Created by potrace 1.11, written by Peter Selinger 2001-2013
</metadata>
<g transform="translate(0.000000,480.000000) scale(0.100000,-0.100000)"
fill="#000000" stroke="none">
<path d="M2409 4715 c-2 -1 -458 -5 -1014 -8 -1115 -6 -1072 -3 -1184 -70 -58
-34 -132 -120 -162 -186 -44 -98 -43 -58 -43 -2091 l-1 -1935 25 -70 c18 -50
39 -85 78 -127 62 -67 93 -87 182 -119 l65 -24 970 2 c774 2 1337 3 1440 2 6
0 366 3 800 6 854 6 905 9 1007 61 60 30 152 116 184 171 14 23 26 60 27 82 1
23 5 41 10 41 5 0 6 514 3 1178 -3 647 -8 1519 -10 1937 -3 650 -5 769 -19
825 -24 98 -64 163 -137 222 -57 45 -115 75 -177 88 -43 10 -2034 25 -2044 15z
m84 -1674 c55 -13 156 -61 205 -99 19 -14 58 -57 88 -95 41 -53 61 -90 86
-165 30 -93 32 -104 32 -252 0 -136 -3 -165 -25 -235 -37 -121 -95 -212 -176
-277 -125 -101 -196 -118 -484 -118 -275 0 -259 -13 -260 207 0 87 -2 345 -5
574 -6 507 -21 462 153 469 169 7 330 3 386 -9z"/>
<path d="M2138 2896 c-12 -12 -14 -90 -10 -472 3 -324 7 -463 15 -473 16 -18
250 -7 326 16 69 21 160 104 195 176 51 109 75 273 56 391 -32 200 -125 322
-275 361 -79 20 -288 21 -307 1z"/>
</g>
</svg>
