<?xml version="1.0" standalone="no"?>
<!DOCTYPE svg PUBLIC "-//W3C//DTD SVG 20010904//EN"
 "http://www.w3.org/TR/2001/REC-SVG-20010904/DTD/svg10.dtd">
<svg version="1.0" xmlns="http://www.w3.org/2000/svg"
 width="640.000000pt" height="640.000000pt" viewBox="0 0 640.000000 640.000000"
 preserveAspectRatio="xMidYMid meet">
<metadata>
Created by potrace 1.11, written by Peter Selinger 2001-2013
</metadata>
<g transform="translate(0.000000,640.000000) scale(0.100000,-0.100000)"
fill="#000000" stroke="none">
<path d="M3198 5535 c-2 -2 -462 -5 -1023 -8 -1126 -6 -1082 -3 -1194 -70 -89
-53 -167 -167 -190 -278 -8 -36 -13 -251 -15 -630 -6 -920 -7 -3147 -2 -3234
8 -117 39 -197 105 -268 30 -32 71 -67 92 -78 64 -32 149 -61 164 -55 8 3 16
2 19 -3 5 -7 1073 -6 2541 4 435 3 826 5 870 4 99 -2 68 -2 333 0 345 3 432
25 553 142 75 72 99 113 102 170 1 21 4 39 8 39 4 0 8 33 8 72 0 40 0 78 1 83
2 13 1 114 -5 1185 -3 481 -7 1249 -9 1705 -4 925 -3 913 -72 1022 -57 91
-162 164 -267 184 -45 8 -2010 22 -2019 14z m-2018 -125 c0 -5 -4 -10 -10 -10
-5 0 -10 5 -10 10 0 6 5 10 10 10 6 0 10 -4 10 -10z m-250 -160 c12 -8 12 -10
-5 -11 -11 0 -14 -3 -7 -6 6 -2 12 -12 11 -21 0 -11 -2 -12 -6 -4 -2 6 -9 10
-14 6 -5 -3 -9 6 -9 20 0 28 6 31 30 16z m-26 -85 c3 -8 1 -15 -4 -15 -6 0
-10 7 -10 15 0 8 2 15 4 15 2 0 6 -7 10 -15z m-4 -60 c10 -12 10 -15 -4 -15
-9 0 -16 7 -16 15 0 8 2 15 4 15 2 0 9 -7 16 -15z m2310 -1235 c122 -15 232
-72 309 -158 74 -84 95 -121 128 -222 26 -77 28 -98 28 -235 0 -168 -21 -272
-73 -362 -15 -26 -33 -59 -40 -73 -21 -39 -151 -138 -212 -161 -86 -32 -131
-37 -357 -41 l-212 -3 -27 27 -27 26 -4 574 c-5 572 -5 573 17 600 19 24 28
27 93 30 191 8 299 7 377 -2z"/>
<path d="M2912 3722 c-11 -7 -13 -100 -12 -473 0 -288 4 -467 10 -473 15 -15
256 -8 316 9 68 19 109 49 165 118 84 105 125 318 92 480 -39 192 -139 306
-293 335 -68 13 -260 15 -278 4z"/>
</g>
</svg>
